<svg xmlns="http://www.w3.org/2000/svg" width="354" height="54" viewBox="0 0 354 54" fill="none"><path d="M40.1674 8.10623e-05C26.7788 2.70656 13.3902 5.41272 0.00134277 8.1192C12.533 10.3543 25.0644 12.5891 37.5958 14.8246C50.1759 11.6922 62.7563 8.55973 75.3371 5.4273C63.6138 3.61845 51.8906 1.80927 40.1674 8.10623e-05Z" fill="#235D8E"></path><path d="M24.0004 22.1345C24.0004 23.3265 22.8495 24.2175 21.6281 23.9716L13.5272 22.3251C12.6206 22.1408 11.9712 21.3788 11.9712 20.4878V19.4924C11.9712 18.3007 13.1155 17.4157 14.3373 17.6553L22.4319 19.259C23.3444 19.4433 24.0004 20.2113 24.0004 21.1023V22.1345ZM1.51721 12.5801L2.42379 43.5229L36.1582 53.9988L36.5374 19.9531L1.51721 12.5801Z" fill="#235D8E"></path><path d="M75.3364 5.42757V10.6301L37.1403 20.5352L1.75847 13.1655L0 12.8012V8.11715L37.1403 14.744L75.3364 5.42757Z" fill="#1B4D7A"></path><path d="M73.9875 10.3158L73.363 33.2899L72.7382 10.3158H73.9875Z" fill="#1F5389"></path><path d="M36.1808 51.9354C44.047 49.5826 51.9132 47.2301 59.7794 44.8776C51.9056 47.9182 44.0318 50.9592 36.158 54.0001C36.1653 53.3117 36.1732 52.6235 36.1808 51.9354Z" fill="#1F5389"></path><path d="M346.237 14.5531L341.414 14.8499C341.332 14.4376 341.155 14.0666 340.882 13.7368C340.61 13.3988 340.252 13.1308 339.807 12.933C339.37 12.7269 338.846 12.6238 338.236 12.6238C337.42 12.6238 336.731 12.7969 336.171 13.1432C335.61 13.4812 335.33 13.9347 335.33 14.5036C335.33 14.9571 335.511 15.3404 335.874 15.6537C336.237 15.967 336.859 16.2185 337.741 16.4081L341.179 17.1007C343.026 17.48 344.403 18.0901 345.31 18.931C346.217 19.772 346.67 20.8768 346.67 22.2454C346.67 23.4904 346.303 24.5828 345.57 25.5227C344.844 26.4626 343.846 27.1964 342.577 27.7241C341.315 28.2435 339.86 28.5032 338.211 28.5032C335.697 28.5032 333.693 27.9797 332.201 26.9326C330.717 25.8773 329.847 24.4427 329.591 22.6288L334.773 22.3567C334.93 23.1235 335.309 23.7089 335.911 24.1129C336.513 24.5086 337.284 24.7065 338.224 24.7065C339.147 24.7065 339.889 24.5292 340.45 24.1747C341.018 23.8119 341.307 23.3461 341.315 22.7772C341.307 22.299 341.105 21.9074 340.709 21.6023C340.314 21.289 339.703 21.0499 338.879 20.885L335.589 20.2296C333.734 19.8586 332.353 19.2155 331.446 18.3003C330.548 17.3851 330.098 16.2185 330.098 14.8004C330.098 13.5802 330.428 12.529 331.088 11.6468C331.756 10.7646 332.691 10.0844 333.895 9.60621C335.107 9.12801 336.525 8.88892 338.149 8.88892C340.549 8.88892 342.437 9.39597 343.813 10.4101C345.199 11.4242 346.006 12.8052 346.237 14.5531Z" fill="#1F538C"></path><path d="M318.971 28.5032C317.017 28.5032 315.335 28.1075 313.926 27.316C312.524 26.5162 311.444 25.3867 310.685 23.9274C309.927 22.4598 309.548 20.7243 309.548 18.7208C309.548 16.7668 309.927 15.0519 310.685 13.5761C311.444 12.1003 312.512 10.9501 313.889 10.1256C315.274 9.30115 316.898 8.88892 318.761 8.88892C320.014 8.88892 321.181 9.09091 322.261 9.49491C323.349 9.89065 324.297 10.4884 325.105 11.2881C325.922 12.0879 326.556 13.0937 327.01 14.3057C327.463 15.5095 327.69 16.9193 327.69 18.5353V19.9822H311.65V16.7173H322.731C322.731 15.9588 322.566 15.2869 322.236 14.7015C321.906 14.1161 321.449 13.6585 320.863 13.3287C320.286 12.9907 319.614 12.8217 318.848 12.8217C318.048 12.8217 317.339 13.0072 316.721 13.3782C316.11 13.741 315.632 14.2315 315.286 14.8499C314.94 15.46 314.762 16.1402 314.754 16.8905V19.9946C314.754 20.9345 314.927 21.7466 315.274 22.4309C315.628 23.1153 316.127 23.6429 316.77 24.0139C317.413 24.3849 318.176 24.5705 319.058 24.5705C319.643 24.5705 320.179 24.488 320.666 24.3231C321.152 24.1582 321.568 23.9109 321.915 23.5811C322.261 23.2513 322.525 22.8473 322.706 22.3691L327.579 22.6906C327.331 23.8614 326.824 24.8838 326.058 25.7577C325.299 26.6234 324.318 27.2995 323.114 27.7859C321.919 28.2641 320.538 28.5032 318.971 28.5032Z" fill="#1F538C"></path><path d="M308.927 9.13647L302.286 28.1324H296.35L289.709 9.13647H295.274L299.219 22.728H299.417L303.35 9.13647H308.927Z" fill="#1F538C"></path><path d="M282.426 28.1317V9.13575H287.695V28.1317H282.426ZM285.073 6.68705C284.29 6.68705 283.618 6.42734 283.057 5.90792C282.505 5.38026 282.228 4.74953 282.228 4.01575C282.228 3.29021 282.505 2.66773 283.057 2.14831C283.618 1.62064 284.29 1.35681 285.073 1.35681C285.856 1.35681 286.524 1.62064 287.076 2.14831C287.637 2.66773 287.917 3.29021 287.917 4.01575C287.917 4.74953 287.637 5.38026 287.076 5.90792C286.524 6.42734 285.856 6.68705 285.073 6.68705Z" fill="#1F538C"></path><path d="M266.66 17.1501V28.1321H261.391V2.8042H266.511V12.4877H266.734C267.162 11.3664 267.855 10.4883 268.811 9.85347C269.768 9.21038 270.967 8.88884 272.41 8.88884C273.729 8.88884 274.879 9.1774 275.861 9.75453C276.85 10.3234 277.617 11.1438 278.161 12.2156C278.713 13.2792 278.985 14.553 278.977 16.037V28.1321H273.709V16.9769C273.717 15.8062 273.42 14.8951 272.818 14.2438C272.225 13.5925 271.392 13.2668 270.32 13.2668C269.603 13.2668 268.968 13.4193 268.416 13.7244C267.872 14.0294 267.443 14.4747 267.13 15.06C266.824 15.6372 266.668 16.3339 266.66 17.1501Z" fill="#1F538C"></path><path d="M250.231 28.5032C248.285 28.5032 246.611 28.091 245.21 27.2665C243.816 26.4338 242.745 25.2795 241.994 23.8037C241.252 22.3279 240.881 20.6295 240.881 18.7084C240.881 16.7627 241.256 15.056 242.007 13.5884C242.765 12.1126 243.841 10.9625 245.234 10.138C246.628 9.30528 248.285 8.88892 250.206 8.88892C251.863 8.88892 253.314 9.18985 254.559 9.79172C255.804 10.3936 256.789 11.2387 257.515 12.327C258.24 13.4153 258.64 14.6932 258.714 16.1608H253.743C253.603 15.2126 253.232 14.45 252.63 13.8729C252.036 13.2875 251.257 12.9948 250.292 12.9948C249.476 12.9948 248.763 13.2174 248.153 13.6626C247.551 14.0996 247.081 14.7386 246.743 15.5795C246.405 16.4205 246.236 17.4387 246.236 18.6342C246.236 19.8462 246.401 20.8768 246.731 21.726C247.069 22.5752 247.543 23.2224 248.153 23.6677C248.763 24.1129 249.476 24.3355 250.292 24.3355C250.894 24.3355 251.434 24.2118 251.913 23.9645C252.399 23.7171 252.799 23.3585 253.112 22.8885C253.434 22.4103 253.644 21.8373 253.743 21.1695H258.714C258.632 22.6206 258.236 23.8985 257.527 25.0033C256.826 26.0999 255.858 26.9573 254.621 27.5757C253.384 28.194 251.921 28.5032 250.231 28.5032Z" fill="#1F538C"></path><path d="M228.979 28.1318V9.13585H234.086V12.4502H234.284C234.63 11.2712 235.211 10.3808 236.028 9.77894C236.844 9.16883 237.784 8.86377 238.847 8.86377C239.111 8.86377 239.396 8.88026 239.701 8.91324C240.006 8.94622 240.274 8.99156 240.505 9.04928V13.7241C240.257 13.6499 239.915 13.5839 239.478 13.5262C239.041 13.4685 238.641 13.4396 238.278 13.4396C237.503 13.4396 236.811 13.6086 236.201 13.9467C235.599 14.2765 235.121 14.7382 234.766 15.3318C234.42 15.9254 234.247 16.6097 234.247 17.3847V28.1318H228.979Z" fill="#1F538C"></path><path d="M208.088 28.1321H202.35L211.094 2.8042H217.994L226.725 28.1321H220.987L214.643 8.59202H214.445L208.088 28.1321ZM207.73 18.1766H221.284V22.3567H207.73V18.1766Z" fill="#1F538C"></path><path d="M192.737 2.8042V28.1321H187.469V2.8042H192.737Z" fill="#F39839"></path><path d="M173.381 28.4908C172.169 28.4908 171.088 28.2806 170.14 27.8601C169.192 27.4314 168.442 26.8007 167.89 25.9679C167.345 25.127 167.073 24.0799 167.073 22.8267C167.073 21.7714 167.267 20.885 167.655 20.1678C168.042 19.4505 168.57 18.8733 169.238 18.4364C169.905 17.9994 170.664 17.6696 171.513 17.447C172.371 17.2244 173.269 17.0677 174.209 16.977C175.314 16.8616 176.204 16.7544 176.88 16.6555C177.556 16.5483 178.047 16.3916 178.352 16.1855C178.657 15.9794 178.81 15.6744 178.81 15.2704V15.1962C178.81 14.4129 178.562 13.8069 178.068 13.3782C177.581 12.9495 176.889 12.7351 175.99 12.7351C175.042 12.7351 174.287 12.9453 173.727 13.3658C173.166 13.7781 172.795 14.2975 172.614 14.9241L167.741 14.5283C167.989 13.3741 168.475 12.3764 169.2 11.5355C169.926 10.6863 170.862 10.0349 172.008 9.58147C173.162 9.11977 174.498 8.88892 176.015 8.88892C177.07 8.88892 178.08 9.01259 179.045 9.25993C180.017 9.50727 180.879 9.89065 181.629 10.4101C182.388 10.9295 182.986 11.5973 183.422 12.4136C183.859 13.2215 184.078 14.1903 184.078 15.3198V28.1322H179.082V25.498H178.933C178.628 26.0916 178.22 26.6152 177.709 27.0686C177.198 27.5138 176.584 27.8642 175.866 28.1198C175.149 28.3672 174.32 28.4908 173.381 28.4908ZM174.889 24.8549C175.664 24.8549 176.349 24.7024 176.942 24.3973C177.536 24.084 178.002 23.6635 178.34 23.1359C178.678 22.6082 178.847 22.0105 178.847 21.3426V19.3268C178.682 19.434 178.455 19.5329 178.167 19.6236C177.886 19.706 177.569 19.7844 177.214 19.8586C176.86 19.9245 176.505 19.9864 176.151 20.0441C175.796 20.0935 175.475 20.1389 175.186 20.1801C174.568 20.2708 174.028 20.4151 173.566 20.613C173.104 20.8108 172.746 21.0788 172.49 21.4168C172.235 21.7466 172.107 22.1589 172.107 22.6535C172.107 23.3708 172.366 23.9191 172.886 24.2984C173.413 24.6694 174.081 24.8549 174.889 24.8549Z" fill="#F39839"></path><path d="M146.619 28.1321V2.8042H151.887V12.3269H152.048C152.279 11.8157 152.613 11.2963 153.05 10.7686C153.495 10.2327 154.072 9.78752 154.781 9.43299C155.499 9.07022 156.389 8.88884 157.453 8.88884C158.838 8.88884 160.116 9.25161 161.286 9.97715C162.457 10.6944 163.393 11.7786 164.094 13.2297C164.794 14.6725 165.145 16.4823 165.145 18.6589C165.145 20.7778 164.803 22.5669 164.118 24.0262C163.442 25.4773 162.519 26.578 161.348 27.3283C160.186 28.0703 158.883 28.4413 157.44 28.4413C156.418 28.4413 155.548 28.2723 154.831 27.9342C154.122 27.5962 153.541 27.1716 153.087 26.6604C152.634 26.141 152.287 25.6175 152.048 25.0898H151.813V28.1321H146.619ZM151.776 18.6341C151.776 19.7637 151.933 20.7489 152.246 21.5899C152.559 22.4309 153.013 23.0863 153.606 23.5563C154.2 24.018 154.921 24.2488 155.771 24.2488C156.628 24.2488 157.354 24.0139 157.947 23.5439C158.541 23.0657 158.99 22.4061 159.295 21.5652C159.609 20.716 159.765 19.7389 159.765 18.6341C159.765 17.5376 159.613 16.573 159.308 15.7402C159.003 14.9075 158.553 14.2562 157.96 13.7862C157.366 13.3163 156.636 13.0813 155.771 13.0813C154.913 13.0813 154.188 13.308 153.594 13.7615C153.009 14.215 152.559 14.858 152.246 15.6908C151.933 16.5235 151.776 17.5046 151.776 18.6341Z" fill="#F39839"></path><path d="M134.442 28.5032C132.521 28.5032 130.86 28.0951 129.458 27.2789C128.065 26.4544 126.989 25.3084 126.23 23.8408C125.472 22.365 125.093 20.6542 125.093 18.7084C125.093 16.7462 125.472 15.0313 126.23 13.5637C126.989 12.0879 128.065 10.9419 129.458 10.1256C130.86 9.30115 132.521 8.88892 134.442 8.88892C136.363 8.88892 138.02 9.30115 139.413 10.1256C140.815 10.9419 141.895 12.0879 142.654 13.5637C143.412 15.0313 143.791 16.7462 143.791 18.7084C143.791 20.6542 143.412 22.365 142.654 23.8408C141.895 25.3084 140.815 26.4544 139.413 27.2789C138.02 28.0951 136.363 28.5032 134.442 28.5032ZM134.467 24.422C135.341 24.422 136.07 24.1747 136.656 23.68C137.241 23.1771 137.682 22.4928 137.979 21.6271C138.284 20.7614 138.436 19.7761 138.436 18.6713C138.436 17.5665 138.284 16.5813 137.979 15.7156C137.682 14.8499 137.241 14.1656 136.656 13.6626C136.07 13.1597 135.341 12.9082 134.467 12.9082C133.584 12.9082 132.842 13.1597 132.241 13.6626C131.647 14.1656 131.198 14.8499 130.893 15.7156C130.596 16.5813 130.447 17.5665 130.447 18.6713C130.447 19.7761 130.596 20.7614 130.893 21.6271C131.198 22.4928 131.647 23.1771 132.241 23.68C132.842 24.1747 133.584 24.422 134.467 24.422Z" fill="#F39839"></path><path d="M122.335 2.8042V28.1321H117.067V2.8042H122.335Z" fill="#F39839"></path><path d="M108.164 10.9911C107.991 10.3892 107.747 9.85744 107.434 9.39573C107.121 8.92578 106.738 8.53003 106.284 8.20849C105.839 7.8787 105.328 7.62723 104.751 7.45409C104.182 7.28095 103.551 7.19438 102.858 7.19438C101.564 7.19438 100.426 7.51593 99.4451 8.15902C98.4723 8.80211 97.7138 9.73789 97.1696 10.9664C96.6255 12.1866 96.3534 13.6789 96.3534 15.4433C96.3534 17.2076 96.6214 18.7082 97.1573 19.9449C97.6932 21.1816 98.4517 22.1256 99.4328 22.777C100.414 23.4201 101.572 23.7416 102.908 23.7416C104.12 23.7416 105.155 23.5273 106.012 23.0985C106.878 22.6616 107.537 22.0473 107.991 21.2558C108.452 20.4643 108.683 19.5285 108.683 18.4485L109.772 18.6093H103.242V14.5776H113.84V17.7683C113.84 19.9944 113.37 21.9072 112.43 23.5066C111.491 25.0979 110.196 26.3264 108.547 27.1921C106.898 28.0495 105.01 28.4782 102.883 28.4782C100.509 28.4782 98.4228 27.9547 96.6255 26.9076C94.8281 25.8523 93.4266 24.3559 92.4207 22.4183C91.4231 20.4726 90.9243 18.164 90.9243 15.4927C90.9243 13.4398 91.2211 11.6095 91.8147 10.0017C92.4166 8.38575 93.2575 7.01712 94.3376 5.89583C95.4176 4.77454 96.6749 3.92121 98.1095 3.33583C99.5441 2.75045 101.098 2.45776 102.772 2.45776C104.206 2.45776 105.542 2.66801 106.779 3.08849C108.015 3.50073 109.112 4.08611 110.068 4.84462C111.033 5.60314 111.82 6.50594 112.43 7.55303C113.041 8.59187 113.432 9.73789 113.605 10.9911H108.164Z" fill="#F39839"></path><path d="M353.381 32.3722V33.5323H90.9243V32.3722H353.381Z" fill="black" fill-opacity="0.12"></path><path d="M353.189 43.2662L351.045 43.3981C351.009 43.2149 350.93 43.05 350.809 42.9034C350.688 42.7532 350.529 42.6341 350.331 42.5461C350.136 42.4545 349.904 42.4087 349.633 42.4087C349.27 42.4087 348.964 42.4857 348.715 42.6396C348.466 42.7898 348.341 42.9914 348.341 43.2442C348.341 43.4457 348.422 43.6161 348.583 43.7554C348.744 43.8946 349.021 44.0064 349.413 44.0907L350.941 44.3985C351.762 44.567 352.374 44.8382 352.777 45.2119C353.18 45.5857 353.381 46.0767 353.381 46.685C353.381 47.2383 353.218 47.7238 352.892 48.1416C352.57 48.5593 352.126 48.8854 351.562 49.12C351.001 49.3508 350.354 49.4662 349.622 49.4662C348.504 49.4662 347.614 49.2336 346.95 48.7682C346.291 48.2992 345.904 47.6616 345.791 46.8554L348.094 46.7345C348.163 47.0753 348.332 47.3354 348.599 47.515C348.867 47.6909 349.209 47.7788 349.627 47.7788C350.038 47.7788 350.367 47.7 350.616 47.5425C350.869 47.3812 350.998 47.1742 351.001 46.9214C350.998 46.7088 350.908 46.5348 350.732 46.3992C350.556 46.2599 350.285 46.1537 349.918 46.0804L348.456 45.7891C347.632 45.6242 347.018 45.3384 346.615 44.9316C346.216 44.5249 346.016 44.0064 346.016 43.3761C346.016 42.8338 346.163 42.3666 346.456 41.9745C346.753 41.5824 347.168 41.2801 347.703 41.0676C348.242 40.855 348.872 40.7488 349.594 40.7488C350.66 40.7488 351.5 40.9741 352.112 41.4248C352.727 41.8756 353.086 42.4893 353.189 43.2662Z" fill="#78716B"></path><path d="M337.044 49.301V40.8583H339.314V42.3314H339.402C339.556 41.8074 339.815 41.4117 340.177 41.1442C340.54 40.873 340.958 40.7374 341.431 40.7374C341.548 40.7374 341.674 40.7448 341.81 40.7594C341.945 40.7741 342.064 40.7942 342.167 40.8199V42.8976C342.057 42.8646 341.905 42.8353 341.711 42.8096C341.517 42.784 341.339 42.7711 341.178 42.7711C340.833 42.7711 340.526 42.8463 340.254 42.9965C339.987 43.1431 339.774 43.3483 339.617 43.6121C339.463 43.8759 339.386 44.1801 339.386 44.5245V49.301H337.044Z" fill="#78716B"></path><path d="M328.857 49.4662C327.988 49.4662 327.241 49.2904 326.614 48.9386C325.991 48.5831 325.511 48.0811 325.174 47.4325C324.837 46.7803 324.668 46.0089 324.668 45.1185C324.668 44.2501 324.837 43.4879 325.174 42.832C325.511 42.176 325.986 41.6649 326.598 41.2984C327.213 40.932 327.935 40.7488 328.763 40.7488C329.32 40.7488 329.839 40.8386 330.319 41.0181C330.802 41.194 331.224 41.4597 331.583 41.8151C331.946 42.1705 332.228 42.6176 332.429 43.1562C332.631 43.6912 332.732 44.3178 332.732 45.0361V45.6791H325.603V44.2281H330.528C330.528 43.891 330.454 43.5923 330.308 43.3321C330.161 43.072 329.958 42.8686 329.698 42.722C329.441 42.5718 329.143 42.4967 328.802 42.4967C328.446 42.4967 328.131 42.5791 327.856 42.744C327.585 42.9052 327.373 43.1233 327.219 43.3981C327.065 43.6693 326.986 43.9716 326.982 44.305V45.6846C326.982 46.1024 327.059 46.4633 327.213 46.7675C327.371 47.0716 327.593 47.3061 327.878 47.471C328.164 47.6359 328.503 47.7184 328.895 47.7184C329.155 47.7184 329.394 47.6817 329.61 47.6084C329.826 47.5351 330.011 47.4252 330.165 47.2786C330.319 47.1321 330.436 46.9525 330.517 46.74L332.682 46.8829C332.572 47.4032 332.347 47.8576 332.006 48.246C331.669 48.6308 331.233 48.9312 330.698 49.1474C330.167 49.36 329.553 49.4662 328.857 49.4662Z" fill="#78716B"></path><path d="M320.788 40.8588V42.6177H315.704V40.8588H320.788ZM316.858 38.8361H319.199V46.7071C319.199 46.9233 319.232 47.0918 319.298 47.2127C319.364 47.33 319.456 47.4124 319.573 47.4601C319.694 47.5077 319.833 47.5315 319.991 47.5315C320.101 47.5315 320.211 47.5224 320.321 47.5041C320.431 47.4821 320.515 47.4656 320.573 47.4546L320.942 49.197C320.824 49.2336 320.66 49.2758 320.447 49.3234C320.234 49.3747 319.976 49.4058 319.672 49.4168C319.108 49.4388 318.613 49.3637 318.188 49.1915C317.767 49.0193 317.439 48.7518 317.204 48.389C316.97 48.0262 316.854 47.5682 316.858 47.0149V38.8361Z" fill="#78716B"></path><path d="M311.986 40.8588V42.6177H306.902V40.8588H311.986ZM308.056 38.8361H310.397V46.7071C310.397 46.9233 310.43 47.0918 310.496 47.2127C310.562 47.33 310.654 47.4124 310.771 47.4601C310.892 47.5077 311.031 47.5315 311.189 47.5315C311.299 47.5315 311.409 47.5224 311.519 47.5041C311.629 47.4821 311.713 47.4656 311.771 47.4546L312.14 49.197C312.022 49.2336 311.858 49.2758 311.645 49.3234C311.432 49.3747 311.174 49.4058 310.87 49.4168C310.306 49.4388 309.811 49.3637 309.386 49.1915C308.965 49.0193 308.637 48.7518 308.402 48.389C308.168 48.0262 308.052 47.5682 308.056 47.0149V38.8361Z" fill="#78716B"></path><path d="M298.139 49.4607C297.6 49.4607 297.12 49.3673 296.699 49.1804C296.278 48.9899 295.944 48.7096 295.699 48.3395C295.457 47.9657 295.336 47.5003 295.336 46.9433C295.336 46.4743 295.422 46.0804 295.594 45.7616C295.766 45.4428 296.001 45.1863 296.298 44.9921C296.594 44.7979 296.932 44.6513 297.309 44.5524C297.69 44.4534 298.09 44.3838 298.507 44.3435C298.998 44.2922 299.394 44.2446 299.694 44.2006C299.995 44.1529 300.213 44.0833 300.349 43.9917C300.484 43.9001 300.552 43.7645 300.552 43.585V43.552C300.552 43.2039 300.442 42.9346 300.222 42.744C300.006 42.5535 299.698 42.4582 299.299 42.4582C298.877 42.4582 298.542 42.5516 298.293 42.7385C298.044 42.9217 297.879 43.1526 297.798 43.4311L295.633 43.2552C295.743 42.7422 295.959 42.2988 296.281 41.925C296.604 41.5476 297.02 41.2581 297.529 41.0566C298.042 40.8514 298.635 40.7488 299.31 40.7488C299.779 40.7488 300.228 40.8037 300.656 40.9137C301.089 41.0236 301.472 41.194 301.805 41.4248C302.142 41.6557 302.408 41.9525 302.602 42.3153C302.796 42.6744 302.893 43.1049 302.893 43.607V49.3013H300.673V48.1306H300.607C300.471 48.3944 300.29 48.6271 300.063 48.8286C299.836 49.0265 299.563 49.1823 299.244 49.2958C298.925 49.4058 298.557 49.4607 298.139 49.4607ZM298.81 47.8448C299.154 47.8448 299.458 47.777 299.722 47.6414C299.986 47.5022 300.193 47.3153 300.343 47.0808C300.493 46.8462 300.568 46.5806 300.568 46.2838V45.3878C300.495 45.4355 300.394 45.4794 300.266 45.5197C300.142 45.5564 300 45.5912 299.843 45.6242C299.685 45.6535 299.528 45.681 299.37 45.7066C299.213 45.7286 299.07 45.7488 298.941 45.7671C298.667 45.8074 298.427 45.8715 298.221 45.9595C298.016 46.0474 297.857 46.1665 297.743 46.3167C297.63 46.4633 297.573 46.6465 297.573 46.8664C297.573 47.1852 297.688 47.4289 297.919 47.5974C298.154 47.7623 298.45 47.8448 298.81 47.8448Z" fill="#78716B"></path><path d="M278.828 49.3013V40.8587H281.059V42.3483H281.158C281.334 41.8536 281.627 41.4633 282.038 41.1775C282.448 40.8917 282.939 40.7488 283.511 40.7488C284.09 40.7488 284.583 40.8935 284.989 41.183C285.396 41.4688 285.667 41.8572 285.803 42.3483H285.891C286.063 41.8646 286.374 41.478 286.825 41.1885C287.28 40.8954 287.816 40.7488 288.436 40.7488C289.223 40.7488 289.863 40.9998 290.354 41.5018C290.849 42.0002 291.096 42.7074 291.096 43.6235V49.3013H288.76V44.0852C288.76 43.6161 288.635 43.2643 288.386 43.0298C288.137 42.7953 287.826 42.6781 287.452 42.6781C287.027 42.6781 286.695 42.8136 286.457 43.0848C286.219 43.3523 286.1 43.7059 286.1 44.1456V49.3013H283.83V44.0357C283.83 43.6216 283.711 43.2918 283.472 43.0463C283.238 42.8008 282.928 42.6781 282.543 42.6781C282.283 42.6781 282.049 42.744 281.84 42.8759C281.635 43.0042 281.472 43.1856 281.351 43.4201C281.23 43.6509 281.169 43.9221 281.169 44.2336V49.3013H278.828Z" fill="#78716B"></path><path d="M268.006 43.2662L265.863 43.3981C265.826 43.2149 265.747 43.05 265.626 42.9034C265.505 42.7532 265.346 42.6341 265.148 42.5461C264.954 42.4545 264.721 42.4087 264.45 42.4087C264.087 42.4087 263.781 42.4857 263.532 42.6396C263.283 42.7898 263.158 42.9914 263.158 43.2442C263.158 43.4457 263.239 43.6161 263.4 43.7554C263.562 43.8946 263.838 44.0064 264.23 44.0907L265.758 44.3985C266.579 44.567 267.191 44.8382 267.594 45.2119C267.997 45.5857 268.199 46.0767 268.199 46.685C268.199 47.2383 268.036 47.7238 267.71 48.1416C267.387 48.5593 266.944 48.8854 266.379 49.12C265.819 49.3508 265.172 49.4662 264.439 49.4662C263.322 49.4662 262.431 49.2336 261.768 48.7682C261.108 48.2992 260.722 47.6616 260.608 46.8554L262.911 46.7345C262.981 47.0753 263.149 47.3354 263.417 47.515C263.684 47.6909 264.027 47.7788 264.445 47.7788C264.855 47.7788 265.185 47.7 265.434 47.5425C265.687 47.3812 265.815 47.1742 265.819 46.9214C265.815 46.7088 265.725 46.5348 265.549 46.3992C265.374 46.2599 265.102 46.1537 264.736 46.0804L263.274 45.7891C262.449 45.6242 261.836 45.3384 261.433 44.9316C261.033 44.5249 260.834 44.0064 260.834 43.3761C260.834 42.8338 260.98 42.3666 261.273 41.9745C261.57 41.5824 261.986 41.2801 262.521 41.0676C263.06 40.855 263.69 40.7488 264.412 40.7488C265.478 40.7488 266.317 40.9741 266.929 41.4248C267.545 41.8756 267.904 42.4893 268.006 43.2662Z" fill="#78716B"></path><path d="M251.467 49.4387C250.826 49.4387 250.245 49.2738 249.725 48.944C249.208 48.6106 248.798 48.1214 248.493 47.4764C248.193 46.8279 248.043 46.0327 248.043 45.091C248.043 44.1236 248.198 43.3193 248.51 42.678C248.821 42.0331 249.235 41.5512 249.752 41.2324C250.272 40.9099 250.842 40.7487 251.461 40.7487C251.934 40.7487 252.328 40.8293 252.643 40.9906C252.962 41.1481 253.219 41.346 253.413 41.5842C253.611 41.8187 253.761 42.0496 253.863 42.2767H253.935V38.0444H256.271V49.3013H253.962V47.9491H253.863C253.754 48.1837 253.598 48.4163 253.396 48.6472C253.198 48.8744 252.94 49.0631 252.621 49.2133C252.306 49.3636 251.921 49.4387 251.467 49.4387ZM252.209 47.5754C252.586 47.5754 252.905 47.4728 253.165 47.2676C253.429 47.0587 253.631 46.7674 253.77 46.3936C253.913 46.0199 253.984 45.582 253.984 45.08C253.984 44.578 253.915 44.1419 253.775 43.7718C253.636 43.4017 253.435 43.1159 253.171 42.9143C252.907 42.7128 252.586 42.612 252.209 42.612C251.824 42.612 251.5 42.7165 251.236 42.9253C250.972 43.1342 250.773 43.4237 250.637 43.7938C250.501 44.1639 250.434 44.5926 250.434 45.08C250.434 45.571 250.501 46.0052 250.637 46.3826C250.776 46.7564 250.976 47.0495 251.236 47.2621C251.5 47.4709 251.824 47.5754 252.209 47.5754Z" fill="#78716B"></path><path d="M239.63 49.301V40.8583H241.9V42.3314H241.988C242.142 41.8074 242.4 41.4117 242.763 41.1442C243.126 40.873 243.544 40.7374 244.016 40.7374C244.134 40.7374 244.26 40.7448 244.396 40.7594C244.531 40.7741 244.65 40.7942 244.753 40.8199V42.8976C244.643 42.8646 244.491 42.8353 244.297 42.8096C244.103 42.784 243.925 42.7711 243.764 42.7711C243.419 42.7711 243.111 42.8463 242.84 42.9965C242.573 43.1431 242.36 43.3483 242.203 43.6121C242.049 43.8759 241.972 44.1801 241.972 44.5245V49.301H239.63Z" fill="#78716B"></path><path d="M231.167 49.4662C230.313 49.4662 229.575 49.2849 228.952 48.9221C228.332 48.5557 227.854 48.0463 227.517 47.3941C227.18 46.7381 227.011 45.9778 227.011 45.113C227.011 44.2409 227.18 43.4787 227.517 42.8265C227.854 42.1705 228.332 41.6612 228.952 41.2984C229.575 40.932 230.313 40.7488 231.167 40.7488C232.02 40.7488 232.757 40.932 233.376 41.2984C233.999 41.6612 234.479 42.1705 234.816 42.8265C235.153 43.4787 235.322 44.2409 235.322 45.113C235.322 45.9778 235.153 46.7381 234.816 47.3941C234.479 48.0463 233.999 48.5557 233.376 48.9221C232.757 49.2849 232.02 49.4662 231.167 49.4662ZM231.178 47.6524C231.566 47.6524 231.89 47.5425 232.151 47.3226C232.411 47.0991 232.607 46.7949 232.739 46.4102C232.874 46.0254 232.942 45.5875 232.942 45.0965C232.942 44.6055 232.874 44.1676 232.739 43.7829C232.607 43.3981 232.411 43.094 232.151 42.8704C231.89 42.6469 231.566 42.5351 231.178 42.5351C230.786 42.5351 230.456 42.6469 230.188 42.8704C229.924 43.094 229.725 43.3981 229.589 43.7829C229.457 44.1676 229.391 44.6055 229.391 45.0965C229.391 45.5875 229.457 46.0254 229.589 46.4102C229.725 46.7949 229.924 47.0991 230.188 47.3226C230.456 47.5425 230.786 47.6524 231.178 47.6524Z" fill="#78716B"></path><path d="M219.296 49.4662C218.431 49.4662 217.687 49.283 217.064 48.9166C216.445 48.5465 215.968 48.0335 215.635 47.3776C215.305 46.7217 215.14 45.9668 215.14 45.113C215.14 44.2482 215.307 43.4897 215.64 42.8375C215.978 42.1815 216.456 41.6704 217.075 41.3039C217.694 40.9338 218.431 40.7488 219.285 40.7488C220.021 40.7488 220.666 40.8825 221.219 41.15C221.773 41.4175 222.21 41.7931 222.533 42.2768C222.855 42.7605 223.033 43.3285 223.066 43.9807H220.857C220.794 43.5593 220.629 43.2204 220.362 42.9639C220.098 42.7037 219.752 42.5736 219.323 42.5736C218.96 42.5736 218.643 42.6726 218.372 42.8704C218.105 43.0646 217.896 43.3486 217.746 43.7224C217.595 44.0962 217.52 44.5487 217.52 45.08C217.52 45.6187 217.593 46.0767 217.74 46.4542C217.89 46.8316 218.101 47.1192 218.372 47.3171C218.643 47.515 218.96 47.6139 219.323 47.6139C219.591 47.6139 219.831 47.559 220.043 47.449C220.259 47.3391 220.437 47.1797 220.576 46.9708C220.719 46.7583 220.813 46.5036 220.857 46.2068H223.066C223.029 46.8517 222.854 47.4197 222.538 47.9107C222.227 48.3981 221.796 48.7792 221.247 49.054C220.697 49.3288 220.047 49.4662 219.296 49.4662Z" fill="#78716B"></path><path d="M207.292 49.4662C206.423 49.4662 205.676 49.2904 205.049 48.9386C204.426 48.5831 203.946 48.0811 203.609 47.4325C203.272 46.7803 203.104 46.0089 203.104 45.1185C203.104 44.2501 203.272 43.4879 203.609 42.832C203.946 42.176 204.421 41.6649 205.033 41.2984C205.648 40.932 206.37 40.7488 207.198 40.7488C207.755 40.7488 208.274 40.8386 208.754 41.0181C209.238 41.194 209.659 41.4597 210.018 41.8151C210.381 42.1705 210.663 42.6176 210.865 43.1562C211.066 43.6912 211.167 44.3178 211.167 45.0361V45.6791H204.038V44.2281H208.963C208.963 43.891 208.89 43.5923 208.743 43.3321C208.596 43.072 208.393 42.8686 208.133 42.722C207.876 42.5718 207.578 42.4967 207.237 42.4967C206.882 42.4967 206.566 42.5791 206.292 42.744C206.02 42.9052 205.808 43.1233 205.654 43.3981C205.5 43.6693 205.421 43.9716 205.418 44.305V45.6846C205.418 46.1024 205.495 46.4633 205.648 46.7675C205.806 47.0716 206.028 47.3061 206.314 47.471C206.599 47.6359 206.938 47.7184 207.33 47.7184C207.591 47.7184 207.829 47.6817 208.045 47.6084C208.261 47.5351 208.446 47.4252 208.6 47.2786C208.754 47.1321 208.871 46.9525 208.952 46.74L211.117 46.8829C211.007 47.4032 210.782 47.8576 210.441 48.246C210.104 48.6308 209.668 48.9312 209.133 49.1474C208.602 49.36 207.988 49.4662 207.292 49.4662Z" fill="#78716B"></path><path d="M194.718 49.301V40.8583H196.988V42.3314H197.076C197.23 41.8074 197.489 41.4117 197.851 41.1442C198.214 40.873 198.632 40.7374 199.105 40.7374C199.222 40.7374 199.348 40.7448 199.484 40.7594C199.619 40.7741 199.738 40.7942 199.841 40.8199V42.8976C199.731 42.8646 199.579 42.8353 199.385 42.8096C199.191 42.784 199.013 42.7711 198.852 42.7711C198.507 42.7711 198.199 42.8463 197.928 42.9965C197.661 43.1431 197.448 43.3483 197.291 43.6121C197.137 43.8759 197.06 44.1801 197.06 44.5245V49.301H194.718Z" fill="#78716B"></path><path d="M179.573 52.6432C178.815 52.6432 178.164 52.5388 177.622 52.3299C177.083 52.1247 176.655 51.8444 176.336 51.489C176.017 51.1335 175.81 50.7341 175.715 50.2907L177.88 49.9994C177.946 50.168 178.051 50.3255 178.194 50.4721C178.337 50.6187 178.525 50.7359 178.76 50.8239C178.998 50.9155 179.288 50.9613 179.628 50.9613C180.138 50.9613 180.557 50.8367 180.887 50.5875C181.22 50.342 181.387 49.9298 181.387 49.3508V47.8063H181.288C181.186 48.0408 181.032 48.2625 180.827 48.4714C180.621 48.6802 180.358 48.8506 180.035 48.9826C179.713 49.1145 179.328 49.1804 178.881 49.1804C178.247 49.1804 177.67 49.0339 177.149 48.7407C176.633 48.4439 176.221 47.9913 175.913 47.3831C175.609 46.7711 175.457 45.9979 175.457 45.0635C175.457 44.1071 175.612 43.3083 175.924 42.6671C176.235 42.0258 176.649 41.5458 177.166 41.227C177.686 40.9082 178.256 40.7488 178.875 40.7488C179.348 40.7488 179.744 40.8294 180.063 40.9906C180.381 41.1482 180.638 41.3461 180.832 41.5842C181.03 41.8188 181.182 42.0496 181.288 42.2768H181.376V40.8587H183.701V49.3838C183.701 50.102 183.525 50.703 183.174 51.1867C182.822 51.6703 182.334 52.0331 181.711 52.275C181.092 52.5205 180.38 52.6432 179.573 52.6432ZM179.623 47.4215C180 47.4215 180.319 47.3281 180.579 47.1412C180.843 46.9507 181.045 46.6795 181.184 46.3277C181.327 45.9723 181.398 45.5472 181.398 45.0525C181.398 44.5579 181.329 44.1291 181.189 43.7664C181.05 43.3999 180.849 43.1159 180.585 42.9144C180.321 42.7129 180 42.6121 179.623 42.6121C179.238 42.6121 178.914 42.7165 178.65 42.9254C178.386 43.1306 178.186 43.4164 178.051 43.7829C177.915 44.1493 177.847 44.5725 177.847 45.0525C177.847 45.5399 177.915 45.9613 178.051 46.3167C178.19 46.6685 178.39 46.9415 178.65 47.1357C178.914 47.3263 179.238 47.4215 179.623 47.4215Z" fill="#78716B"></path><path d="M165.697 44.4204V49.3013H163.356V40.8587H165.587V42.3483H165.686C165.873 41.8572 166.186 41.4688 166.626 41.183C167.066 40.8935 167.599 40.7488 168.225 40.7488C168.812 40.7488 169.323 40.877 169.759 41.1335C170.195 41.39 170.534 41.7565 170.776 42.2328C171.018 42.7055 171.139 43.2698 171.139 43.9258V49.3013H168.797V44.3435C168.801 43.8268 168.669 43.4237 168.401 43.1343C168.134 42.8411 167.766 42.6945 167.297 42.6945C166.981 42.6945 166.703 42.7623 166.461 42.8979C166.223 43.0335 166.036 43.2314 165.9 43.4915C165.769 43.748 165.701 44.0577 165.697 44.4204Z" fill="#78716B"></path><path d="M156.351 49.3013V40.8587H158.693V49.3013H156.351ZM157.528 39.7704C157.179 39.7704 156.881 39.6549 156.632 39.4241C156.386 39.1896 156.263 38.9092 156.263 38.5831C156.263 38.2607 156.386 37.984 156.632 37.7531C156.881 37.5186 157.179 37.4014 157.528 37.4014C157.876 37.4014 158.173 37.5186 158.418 37.7531C158.667 37.984 158.792 38.2607 158.792 38.5831C158.792 38.9092 158.667 39.1896 158.418 39.4241C158.173 39.6549 157.876 39.7704 157.528 39.7704Z" fill="#78716B"></path><path d="M147.574 52.6432C146.816 52.6432 146.165 52.5388 145.623 52.3299C145.084 52.1247 144.656 51.8444 144.337 51.489C144.018 51.1335 143.811 50.7341 143.716 50.2907L145.881 49.9994C145.947 50.168 146.052 50.3255 146.195 50.4721C146.338 50.6187 146.526 50.7359 146.761 50.8239C146.999 50.9155 147.289 50.9613 147.629 50.9613C148.139 50.9613 148.558 50.8367 148.888 50.5875C149.221 50.342 149.388 49.9298 149.388 49.3508V47.8063H149.289C149.187 48.0408 149.033 48.2625 148.828 48.4714C148.622 48.6802 148.358 48.8506 148.036 48.9826C147.714 49.1145 147.329 49.1804 146.882 49.1804C146.248 49.1804 145.671 49.0339 145.15 48.7407C144.634 48.4439 144.222 47.9913 143.914 47.3831C143.61 46.7711 143.458 45.9979 143.458 45.0635C143.458 44.1071 143.613 43.3083 143.925 42.6671C144.236 42.0258 144.65 41.5458 145.167 41.227C145.687 40.9082 146.257 40.7488 146.876 40.7488C147.349 40.7488 147.745 40.8294 148.064 40.9906C148.382 41.1482 148.639 41.3461 148.833 41.5842C149.031 41.8188 149.183 42.0496 149.289 42.2768H149.377V40.8587H151.702V49.3838C151.702 50.102 151.526 50.703 151.174 51.1867C150.823 51.6703 150.335 52.0331 149.712 52.275C149.093 52.5205 148.38 52.6432 147.574 52.6432ZM147.624 47.4215C148.001 47.4215 148.32 47.3281 148.58 47.1412C148.844 46.9507 149.046 46.6795 149.185 46.3277C149.328 45.9723 149.399 45.5472 149.399 45.0525C149.399 44.5579 149.33 44.1291 149.19 43.7664C149.051 43.3999 148.85 43.1159 148.586 42.9144C148.322 42.7129 148.001 42.6121 147.624 42.6121C147.239 42.6121 146.915 42.7165 146.651 42.9254C146.387 43.1306 146.187 43.4164 146.052 43.7829C145.916 44.1493 145.848 44.5725 145.848 45.0525C145.848 45.5399 145.916 45.9613 146.052 46.3167C146.191 46.6685 146.391 46.9415 146.651 47.1357C146.915 47.3263 147.239 47.4215 147.624 47.4215Z" fill="#78716B"></path><path d="M134.414 49.4607C133.875 49.4607 133.395 49.3673 132.974 49.1804C132.552 48.9899 132.219 48.7096 131.973 48.3395C131.732 47.9657 131.611 47.5003 131.611 46.9433C131.611 46.4743 131.697 46.0804 131.869 45.7616C132.041 45.4428 132.276 45.1863 132.573 44.9921C132.869 44.7979 133.207 44.6513 133.584 44.5524C133.965 44.4534 134.364 44.3838 134.782 44.3435C135.273 44.2922 135.669 44.2446 135.969 44.2006C136.27 44.1529 136.488 44.0833 136.623 43.9917C136.759 43.9001 136.827 43.7645 136.827 43.585V43.552C136.827 43.2039 136.717 42.9346 136.497 42.744C136.281 42.5535 135.973 42.4582 135.574 42.4582C135.152 42.4582 134.817 42.5516 134.568 42.7385C134.319 42.9217 134.154 43.1526 134.073 43.4311L131.908 43.2552C132.017 42.7422 132.234 42.2988 132.556 41.925C132.879 41.5476 133.294 41.2581 133.804 41.0566C134.317 40.8514 134.91 40.7488 135.585 40.7488C136.054 40.7488 136.503 40.8037 136.931 40.9137C137.364 41.0236 137.747 41.194 138.08 41.4248C138.417 41.6557 138.683 41.9525 138.877 42.3153C139.071 42.6744 139.168 43.1049 139.168 43.607V49.3013H136.948V48.1306H136.882C136.746 48.3944 136.565 48.6271 136.338 48.8286C136.11 49.0265 135.837 49.1823 135.519 49.2958C135.2 49.4058 134.832 49.4607 134.414 49.4607ZM135.084 47.8448C135.429 47.8448 135.733 47.777 135.997 47.6414C136.261 47.5022 136.468 47.3153 136.618 47.0808C136.768 46.8462 136.843 46.5806 136.843 46.2838V45.3878C136.77 45.4355 136.669 45.4794 136.541 45.5197C136.416 45.5564 136.275 45.5912 136.118 45.6242C135.96 45.6535 135.803 45.681 135.645 45.7066C135.488 45.7286 135.345 45.7488 135.216 45.7671C134.942 45.8074 134.702 45.8715 134.496 45.9595C134.291 46.0474 134.132 46.1665 134.018 46.3167C133.905 46.4633 133.848 46.6465 133.848 46.8664C133.848 47.1852 133.963 47.4289 134.194 47.5974C134.429 47.7623 134.725 47.8448 135.084 47.8448Z" fill="#78716B"></path><path d="M121.934 44.4204V49.3013H119.592V40.8587H121.824V42.3483H121.923C122.11 41.8572 122.423 41.4688 122.863 41.183C123.302 40.8935 123.836 40.7488 124.462 40.7488C125.049 40.7488 125.56 40.877 125.996 41.1335C126.432 41.39 126.771 41.7565 127.013 42.2328C127.254 42.7055 127.375 43.2698 127.375 43.9258V49.3013H125.034V44.3435C125.038 43.8268 124.906 43.4237 124.638 43.1343C124.371 42.8411 124.002 42.6945 123.533 42.6945C123.218 42.6945 122.94 42.7623 122.698 42.8979C122.46 43.0335 122.273 43.2314 122.137 43.4915C122.005 43.748 121.938 44.0577 121.934 44.4204Z" fill="#78716B"></path><path d="M110.236 49.4607C109.697 49.4607 109.217 49.3673 108.795 49.1804C108.374 48.9899 108.041 48.7096 107.795 48.3395C107.553 47.9657 107.432 47.5003 107.432 46.9433C107.432 46.4743 107.518 46.0804 107.691 45.7616C107.863 45.4428 108.097 45.1863 108.394 44.9921C108.691 44.7979 109.028 44.6513 109.406 44.5524C109.787 44.4534 110.186 44.3838 110.604 44.3435C111.095 44.2922 111.491 44.2446 111.791 44.2006C112.092 44.1529 112.31 44.0833 112.445 43.9917C112.581 43.9001 112.648 43.7645 112.648 43.585V43.552C112.648 43.2039 112.539 42.9346 112.319 42.744C112.102 42.5535 111.795 42.4582 111.395 42.4582C110.974 42.4582 110.639 42.5516 110.389 42.7385C110.14 42.9217 109.975 43.1526 109.895 43.4311L107.729 43.2552C107.839 42.7422 108.055 42.2988 108.378 41.925C108.7 41.5476 109.116 41.2581 109.625 41.0566C110.138 40.8514 110.732 40.7488 111.406 40.7488C111.875 40.7488 112.324 40.8037 112.753 40.9137C113.185 41.0236 113.568 41.194 113.902 41.4248C114.239 41.6557 114.504 41.9525 114.699 42.3153C114.893 42.6744 114.99 43.1049 114.99 43.607V49.3013H112.769V48.1306H112.703C112.568 48.3944 112.386 48.6271 112.159 48.8286C111.932 49.0265 111.659 49.1823 111.34 49.2958C111.022 49.4058 110.653 49.4607 110.236 49.4607ZM110.906 47.8448C111.251 47.8448 111.555 47.777 111.819 47.6414C112.082 47.5022 112.289 47.3153 112.44 47.0808C112.59 46.8462 112.665 46.5806 112.665 46.2838V45.3878C112.592 45.4355 112.491 45.4794 112.363 45.5197C112.238 45.5564 112.097 45.5912 111.939 45.6242C111.782 45.6535 111.624 45.681 111.467 45.7066C111.309 45.7286 111.166 45.7488 111.038 45.7671C110.763 45.8074 110.523 45.8715 110.318 45.9595C110.113 46.0474 109.953 46.1665 109.84 46.3167C109.726 46.4633 109.669 46.6465 109.669 46.8664C109.669 47.1852 109.785 47.4289 110.016 47.5974C110.25 47.7623 110.547 47.8448 110.906 47.8448Z" fill="#78716B"></path><path d="M90.9244 49.3013V40.8587H93.156V42.3483H93.2549C93.4308 41.8536 93.7239 41.4633 94.1343 41.1775C94.5447 40.8917 95.0358 40.7488 95.6074 40.7488C96.1863 40.7488 96.6792 40.8935 97.0859 41.183C97.4927 41.4688 97.7638 41.8572 97.8994 42.3483H97.9873C98.1596 41.8646 98.471 41.478 98.9217 41.1885C99.3761 40.8954 99.9129 40.7488 100.532 40.7488C101.32 40.7488 101.959 40.9998 102.45 41.5018C102.945 42.0002 103.192 42.7074 103.192 43.6235V49.3013H100.856V44.0852C100.856 43.6161 100.732 43.2643 100.483 43.0298C100.234 42.7953 99.9221 42.6781 99.5483 42.6781C99.1233 42.6781 98.7916 42.8136 98.5535 43.0848C98.3153 43.3523 98.1962 43.7059 98.1962 44.1456V49.3013H95.9262V44.0357C95.9262 43.6216 95.8071 43.2918 95.5689 43.0463C95.3344 42.8008 95.0248 42.6781 94.64 42.6781C94.3799 42.6781 94.1453 42.744 93.9365 42.8759C93.7313 43.0042 93.5682 43.1856 93.4473 43.4201C93.3264 43.6509 93.2659 43.9221 93.2659 44.2336V49.3013H90.9244Z" fill="#78716B"></path></svg>